<svg xmlns="http://www.w3.org/2000/svg" version="1.1" xmlns:xlink="http://www.w3.org/1999/xlink" xmlns:svgjs="http://svgjs.dev/svgjs" viewBox="0 0 800 800"><g stroke-width="2.5" stroke="hsl(305, 77%, 40%)" fill="none" stroke-linecap="round"><path d="M372.55 128.63C381.77 130.05 390.96 130.92 400.11 131.23 409.28 130.53 418.43 129.45 427.55 128.17 436.72 126.33 445.91 124.7 455.12 123.48 464.43 122.37 473.81 122.07 483.27 122.73 492.87 124.03 502.61 126.5 512.49 130.16 522.57 134.64 532.82 140.29 543.23 146.99 553.85 154.39 564.64 162.64 575.55 171.58 586.61 180.9 597.75 190.66 608.86 200.71 620 210.79 631 220.96 641.72 231.11 652.23 241.06 662.28 250.89 671.7 260.58 680.63 269.95 688.7 279.17 695.74 288.27 702.01 297.05 707.05 305.77 710.73 314.46 713.46 322.91 714.72 331.43 714.49 340.07 713.31 348.54 710.7 357.22 706.72 366.14 702.06 374.98 696.3 384.13 689.6 393.63 682.74 403.1 675.36 412.96 667.66 423.23 660.46 433.5 653.55 443.95 647.11 454.56 641.64 465.16 636.86 475.9 632.82 486.7 629.92 497.45 627.76 508.2 626.28 518.84 625.83 529.33 625.87 539.57 626.27 549.43 627.38 558.96 628.58 567.91 629.7 576.12 631.67 601.89 621.93 606.5 615.12 603.43 609.93 601.72 603.96 600.19 597.28 599.24 590.29 599.75 582.67 601.51 574.5 604.84 566.11 610.29 557.26 617.6 548.04 626.76 538.68 637.83 529.02 650.3 519.13 663.72 509.17 677.73 499.03 691.51 488.77 704.3 478.48 715.7 468.11 724.76 457.67 730.85 447.24 734 436.76 733.52 426.26 729.33 415.76 722.23 405.48 712.31 395.44 700.33 385.37 687.36 375.52 673.89 365.88 660.71 356.21 648.74 346.72 638.28 337.42 629.71 328.06 623.58 318.86 619.64 309.83 617.75 300.72 618.16 291.76 620.07 282.94 623.04 274.03 627.21 265.26 631.54 256.65 635.54 247.94 639.5 239.39 642.39 231.01 643.95 222.57 644.6 214.32 643.58 206.29 640.9 198.25 637.04 190.46 631.56 182.97 624.65 175.52 616.73 168.41 607.66 161.69 597.67 155.07 587.03 148.89 575.8 143.19 564.19 137.66 552.27 132.64 540.22 128.18 528.17 123.94 516.06 120.28 504.08 117.23 492.33 114.41 480.62 112.21 469.17 110.66 458.04 109.31 446.96 108.6 436.18 108.52 425.73 108.61 415.32 109.32 405.2 110.64 395.41 112.04 385.61 113.99 376.34 116.41 367.59 118.84 358.8 121.69 350.51 124.92 342.68 128.07 334.81 131.56 327.37 135.34 320.36 138.96 313.25 142.85 306.5 146.97 300.07 150.88 293.47 155.01 287.09 159.33 280.89 163.43 274.39 167.74 267.94 172.23 261.48 176.51 254.58 181 247.55 185.71 240.34 190.24 232.6 195.02 224.62 200.04 216.38 204.94 207.66 210.12 198.75 215.58 189.71 220.98 180.41 226.68 171.18 232.7 162.17 238.69 153.3 245 144.96 251.64 137.33 258.27 130.29 265.23 124.25 272.49 119.38 279.77 115.39 287.35 112.68 295.21 111.31 303.09 110.76 311.23 111.37 319.61 113.05 328.01 115.08 336.63 117.75 345.46 120.84 354.29 123.57 363.33 126.23 372.54 128.63" stroke-dasharray="5 5" transform="rotate(0, 400, 400)" opacity="1.00"></path><path d="M374.72 140.19C383.63 141.62 392.56 142.53 401.49 142.9 410.43 142.3 419.4 141.32 428.38 140.11 437.41 138.33 446.5 136.69 455.63 135.38 464.85 134.1 474.17 133.53 483.58 133.81 493.12 134.63 502.79 136.53 512.6 139.53 522.56 143.3 532.68 148.19 542.93 154.12 553.33 160.75 563.85 168.27 574.43 176.54 585.11 185.27 595.79 194.52 606.39 204.15 616.94 213.93 627.29 223.89 637.3 233.94 647.07 243.9 656.32 253.82 664.92 263.66 673.02 273.27 680.27 282.77 686.51 292.16 692.03 301.29 696.37 310.34 699.45 319.33 701.64 328.11 702.5 336.91 701.97 345.76 700.61 354.46 697.94 363.29 694.03 372.29 689.54 381.21 684.04 390.35 677.68 399.75 671.2 409.12 664.22 418.78 656.95 428.75 650.12 438.71 643.53 448.75 637.34 458.83 632.02 468.91 627.29 478.99 623.2 489.02 620.16 498.98 617.76 508.81 615.97 518.39 615.14 527.81 614.75 536.86 614.72 545.41 615.37 553.64 616.14 561.2 616.88 567.96 614.04 588.87 596.7 586.84 588.09 586.93 581.84 588.7 574.98 591.75 567.56 596.3 559.93 602.77 551.83 610.9 543.32 620.61 534.68 631.91 525.71 644.3 516.45 657.35 507.13 670.74 497.59 683.71 487.87 695.59 478.13 706.07 468.24 714.29 458.26 719.72 448.27 722.44 438.2 721.81 428.06 717.78 417.93 711.09 407.97 701.78 398.19 690.52 388.41 678.28 378.8 665.46 369.37 652.76 359.91 641.02 350.6 630.51 341.47 621.61 332.28 614.85 323.23 610.03 314.34 607.12 305.38 606.35 296.55 607.08 287.86 608.94 279.1 612.11 270.47 615.66 261.99 619.16 253.44 622.89 245.05 625.88 236.84 627.86 228.58 629.23 220.52 629.22 212.68 627.76 204.85 625.34 197.28 621.43 190.01 616.15 182.79 609.94 175.92 602.55 169.43 594.18 163.06 585.14 157.11 575.37 151.64 565.08 146.33 554.41 141.54 543.44 137.29 532.33 133.25 521.08 129.78 509.82 126.91 498.68 124.26 487.51 122.21 476.52 120.79 465.77 119.58 455.04 118.98 444.57 119 434.39 119.19 424.23 119.97 414.35 121.35 404.78 122.82 395.21 124.8 386.15 127.25 377.57 129.7 368.97 132.56 360.82 135.79 353.11 138.94 345.33 142.41 337.95 146.17 330.93 149.77 323.79 153.63 316.94 157.7 310.34 161.58 303.53 165.66 296.89 169.93 290.34 173.99 283.48 178.23 276.61 182.65 269.67 186.87 262.33 191.28 254.82 195.89 247.14 200.31 238.99 204.97 230.63 209.85 222.08 214.6 213.15 219.6 204.11 224.87 195.04 230.05 185.84 235.52 176.82 241.27 168.11 246.98 159.66 253 151.8 259.32 144.72 265.61 138.26 272.22 132.83 279.12 128.55 286.02 125.12 293.22 122.92 300.69 121.98 308.17 121.78 315.91 122.67 323.91 124.52 331.91 126.66 340.16 129.38 348.63 132.46 357.1 135.17 365.8 137.81 374.71 140.18" stroke-dasharray="7 2" transform="rotate(4.04, 400, 400)" opacity="0.96"></path><path d="M377.74 151.74C386.36 153.18 395.03 154.13 403.73 154.57 412.46 154.07 421.23 153.2 430.06 152.08 438.92 150.37 447.87 148.75 456.88 147.39 465.98 145.98 475.18 145.19 484.48 145.14 493.89 145.53 503.43 146.89 513.08 149.27 522.86 152.35 532.76 156.49 542.75 161.64 552.85 167.48 563.02 174.22 573.19 181.74 583.41 189.76 593.57 198.38 603.58 207.46 613.5 216.79 623.16 226.39 632.43 236.17 641.43 245.96 649.89 255.81 657.68 265.63 664.97 275.32 671.43 284.95 676.92 294.48 681.72 303.84 685.43 313.11 687.94 322.32 689.67 331.35 690.16 340.36 689.38 349.37 687.87 358.26 685.18 367.21 681.36 376.24 677.04 385.21 671.8 394.32 665.78 403.58 659.68 412.82 653.1 422.25 646.24 431.87 639.78 441.49 633.5 451.06 627.56 460.57 622.4 470.06 617.74 479.43 613.64 488.63 610.47 497.76 607.87 506.63 605.82 515.16 604.63 523.5 603.87 531.39 603.43 538.7 603.82 548.85 605.37 564.65 605.89 569.93 601.25 574.58 585.84 573.86 578.17 575.76 572.6 578.75 566.43 582.98 559.71 588.6 552.8 595.93 545.41 604.7 537.59 614.78 529.65 626.15 521.34 638.34 512.72 650.92 504.03 663.62 495.08 675.75 485.92 686.73 476.73 696.31 467.35 703.73 457.84 708.54 448.32 710.86 438.67 710.1 428.92 706.23 419.17 699.93 409.55 691.21 400.08 680.66 390.6 669.14 381.26 656.97 372.06 644.79 362.84 633.35 353.75 622.88 344.8 613.76 335.82 606.49 326.95 600.93 318.22 597.09 309.44 595.23 300.78 594.82 292.25 595.57 283.66 597.68 275.21 600.34 266.9 603.17 258.55 606.45 250.34 609.29 242.32 611.41 234.28 613.2 226.44 613.89 218.83 613.35 211.24 612.08 203.91 609.49 196.88 605.64 189.92 600.98 183.3 595.17 177.06 588.34 170.95 580.88 165.26 572.61 160.03 563.7 154.98 554.39 150.41 544.64 146.38 534.62 142.56 524.39 139.29 514.03 136.6 503.65 134.12 493.21 132.23 482.83 130.95 472.61 129.87 462.37 129.38 452.32 129.5 442.49 129.78 432.68 130.63 423.09 132.06 413.76 133.58 404.43 135.6 395.55 138.06 387.12 140.53 378.66 143.39 370.6 146.61 362.92 149.75 355.17 153.2 347.75 156.92 340.62 160.5 333.36 164.33 326.33 168.36 319.47 172.21 312.4 176.25 305.42 180.47 298.48 184.49 291.23 188.68 283.94 193.04 276.55 197.2 268.79 201.54 260.88 206.06 252.79 210.41 244.34 214.96 235.72 219.72 226.97 224.34 217.97 229.19 208.93 234.29 199.97 239.29 190.99 244.55 182.29 250.08 174 255.55 166.04 261.3 158.74 267.34 152.26 273.34 146.43 279.64 141.62 286.22 137.93 292.78 135.06 299.63 133.35 306.75 132.81 313.87 132.94 321.26 134.07 328.91 136.07 336.55 138.3 344.44 141.05 352.59 144.11 360.72 146.79 369.11 149.39 377.73 151.74" stroke-dasharray="9 10" transform="rotate(8.08, 400, 400)" opacity="0.92"></path><path d="M381.5 163.29C389.84 164.74 398.26 165.73 406.73 166.23 415.22 165.84 423.79 165.08 432.43 164.06 441.11 162.46 449.88 160.89 458.74 159.5 467.66 158.02 476.69 157.04 485.82 156.72 495.03 156.73 504.36 157.61 513.78 159.42 523.3 161.84 532.9 165.25 542.55 169.63 552.27 174.66 562.01 180.58 571.71 187.3 581.4 194.55 590.98 202.44 600.36 210.85 609.61 219.58 618.55 228.68 627.07 238.02 635.3 247.48 642.97 257.07 649.96 266.7 656.48 276.3 662.18 285.89 666.96 295.42 671.11 304.84 674.22 314.2 676.23 323.49 677.54 332.66 677.71 341.78 676.73 350.86 675.11 359.85 672.41 368.84 668.7 377.85 664.56 386.81 659.6 395.83 653.92 404.91 648.17 413.97 641.99 423.12 635.53 432.34 629.43 441.56 623.47 450.64 617.78 459.53 612.79 468.4 608.21 477.04 604.12 485.41 600.86 493.7 598.1 501.64 595.81 509.14 594.31 516.48 593.19 523.28 592.38 529.47 591.6 555.4 584.72 559.58 580.07 559.93 576.55 561.15 572.4 563.01 567.63 565.76 562.66 569.87 557.11 575.15 551.03 581.68 544.79 589.7 538.05 598.92 530.89 609.22 523.61 620.51 515.94 632.37 507.94 644.4 499.88 656.36 491.52 667.64 482.91 677.71 474.28 686.42 465.43 693.09 456.4 697.31 447.36 699.26 438.15 698.39 428.81 694.67 419.47 688.76 410.22 680.62 401.07 670.75 391.92 659.95 382.87 648.44 373.94 636.8 364.99 625.72 356.15 615.38 347.42 606.14 338.67 598.48 330.02 592.3 321.48 587.65 312.91 584.8 304.45 583.31 296.12 582.98 287.75 584.01 279.5 585.71 271.39 587.75 263.27 590.4 255.29 592.86 247.5 594.87 239.71 596.79 232.11 597.86 224.75 597.97 217.43 597.55 210.37 596 203.6 593.33 196.93 590 190.59 585.58 184.62 580.18 178.79 574.19 173.37 567.37 168.39 559.84 163.6 551.9 159.28 543.43 155.48 534.57 151.88 525.47 148.82 516.13 146.31 506.64 144.02 497.06 142.29 487.43 141.14 477.83 140.19 468.21 139.82 458.68 140.02 449.28 140.38 439.89 141.3 430.65 142.77 421.59 144.33 412.53 146.37 403.85 148.84 395.54 151.32 387.2 154.17 379.2 157.37 371.5 160.5 363.73 163.92 356.22 167.61 348.94 171.16 341.52 174.95 334.25 178.94 327.1 182.75 319.74 186.76 312.42 190.93 305.09 194.91 297.49 199.06 289.82 203.36 282.04 207.48 273.95 211.76 265.72 216.21 257.35 220.49 248.71 224.95 239.96 229.61 231.15 234.13 222.21 238.86 213.32 243.81 204.6 248.65 195.97 253.74 187.69 259.08 179.91 264.34 172.52 269.87 165.84 275.66 160 281.4 154.83 287.42 150.65 293.72 147.55 299.98 145.22 306.52 143.97 313.33 143.81 320.12 144.25 327.19 145.59 334.52 147.72 341.83 150.01 349.41 152.76 357.24 155.79 365.06 158.43 373.15 160.98 381.49 163.29" stroke-dasharray="11 9" transform="rotate(12.12, 400, 400)" opacity="0.89"></path><path d="M385.88 174.84C393.95 176.3 402.11 177.32 410.34 177.89 418.59 177.6 426.94 176.96 435.36 176.06 443.82 174.57 452.38 173.08 461.02 171.71 469.73 170.18 478.53 169.08 487.42 168.53 496.38 168.22 505.43 168.68 514.55 169.97 523.72 171.78 532.96 174.51 542.2 178.13 551.48 182.36 560.72 187.46 569.88 193.35 578.99 199.76 587.94 206.85 596.66 214.51 605.21 222.53 613.42 230.98 621.18 239.75 628.65 248.71 635.55 257.87 641.78 267.15 647.55 276.47 652.55 285.84 656.66 295.2 660.2 304.52 662.78 313.81 664.33 323.03 665.27 332.18 665.17 341.28 664.03 350.32 662.33 359.3 659.66 368.24 656.07 377.13 652.12 386 647.43 394.86 642.08 403.69 636.69 412.51 630.89 421.33 624.81 430.12 619.07 438.91 613.42 447.45 607.99 455.72 603.17 463.96 598.71 471.89 594.64 479.46 591.32 486.95 588.42 494.02 585.94 500.59 583.46 509.96 580.81 525.36 580.23 531.17 575.26 543.72 562.73 551.59 556.59 556.93 552.14 562.04 547.14 568.21 541.64 575.48 535.99 584 529.87 593.51 523.31 603.84 516.65 614.93 509.6 626.35 502.2 637.75 494.73 648.94 486.95 659.35 478.9 668.54 470.81 676.42 462.48 682.36 453.94 686.03 445.39 687.64 436.65 686.68 427.74 683.12 418.82 677.59 409.96 669.99 401.17 660.79 392.37 650.69 383.65 639.85 375.01 628.78 366.36 618.11 357.79 607.97 349.32 598.72 340.83 590.79 332.43 584.11 324.13 578.77 315.81 575.05 307.59 572.58 299.48 571.22 291.36 571.19 283.36 571.88 275.49 573.05 267.63 574.94 259.91 576.85 252.38 578.52 244.87 580.31 237.55 581.5 230.47 581.95 223.44 582.08 216.67 581.29 210.21 579.52 203.83 577.26 197.79 574.02 192.11 569.84 186.58 565.18 181.44 559.67 176.74 553.44 172.22 546.83 168.15 539.62 164.59 531.93 161.22 524.01 158.37 515.73 156.05 507.2 153.94 498.55 152.37 489.75 151.37 480.87 150.55 471.95 150.28 463.02 150.57 454.12 151 445.22 151.97 436.38 153.48 427.63 155.08 418.87 157.13 410.41 159.59 402.22 162.07 394.01 164.91 386.06 168.07 378.33 171.18 370.54 174.57 362.92 178.21 355.46 181.73 347.88 185.48 340.39 189.42 332.96 193.2 325.34 197.17 317.72 201.29 310.06 205.24 302.17 209.34 294.2 213.6 286.12 217.67 277.81 221.9 269.39 226.29 260.89 230.51 252.2 234.91 243.47 239.48 234.76 243.91 226.01 248.53 217.41 253.36 209.06 258.08 200.89 263.02 193.14 268.19 185.95 273.27 179.2 278.61 173.18 284.19 168.01 289.71 163.49 295.49 159.94 301.53 157.43 307.53 155.6 313.8 154.8 320.33 154.99 326.83 155.69 333.6 157.21 340.63 159.44 347.65 161.78 354.93 164.52 362.47 167.49 370 170.08 377.8 172.57 385.87 174.84" stroke-dasharray="2 3" transform="rotate(16.16, 400, 400)" opacity="0.85"></path><path d="M390.74 186.39C398.53 187.85 406.43 188.9 414.4 189.53 422.4 189.36 430.49 188.85 438.67 188.07 446.88 186.71 455.18 185.32 463.57 184 472 182.48 480.52 181.29 489.11 180.57 497.76 180 506.46 180.1 515.21 180.93 523.99 182.19 532.79 184.28 541.56 187.2 550.33 190.66 559.03 194.95 567.6 200 576.1 205.56 584.39 211.8 592.41 218.63 600.26 225.86 607.73 233.55 614.75 241.63 621.46 249.94 627.62 258.53 633.12 267.29 638.2 276.17 642.52 285.15 646.03 294.16 649.01 303.21 651.11 312.25 652.26 321.25 652.88 330.24 652.55 339.17 651.28 348.03 649.53 356.86 646.91 365.63 643.46 374.31 639.71 382.99 635.29 391.59 630.27 400.11 625.23 408.63 619.8 417.06 614.1 425.39 608.7 433.71 603.36 441.72 598.19 449.37 593.56 457 589.21 464.25 585.2 471.08 581.85 477.85 578.85 484.14 576.21 489.93 571.55 504.79 568.12 520.56 567.4 523.56 562.27 530.75 550.71 542.4 545.15 549.24 541.15 555.19 536.64 562.08 531.64 569.9 526.53 578.75 520.96 588.37 514.96 598.6 508.87 609.35 502.39 620.24 495.56 630.95 488.66 641.34 481.44 650.89 473.93 659.22 466.38 666.28 458.57 671.54 450.53 674.7 442.48 676 434.2 674.97 425.73 671.57 417.26 666.4 408.81 659.34 400.39 650.78 391.98 641.36 383.6 631.2 375.29 620.73 366.97 610.5 358.71 600.64 350.53 591.47 342.34 583.38 334.22 576.34 326.2 570.44 318.16 565.95 310.22 562.61 302.38 560.3 294.55 559.24 286.82 558.94 279.24 559.19 271.67 560.24 264.25 561.45 257.01 562.61 249.8 564.06 242.8 565.11 236.02 565.64 229.32 566.04 222.87 565.71 216.72 564.58 210.67 563.1 204.94 560.77 199.57 557.61 194.34 554.05 189.5 549.69 185.09 544.62 180.84 539.21 177.05 533.18 173.72 526.62 170.6 519.83 167.96 512.6 165.84 505.05 163.91 497.36 162.5 489.43 161.63 481.31 160.93 473.15 160.77 464.87 161.13 456.52 161.64 448.16 162.66 439.77 164.19 431.36 165.81 422.95 167.87 414.73 170.32 406.7 172.78 398.65 175.59 390.76 178.72 383.02 181.79 375.23 185.14 367.54 188.73 359.94 192.21 352.23 195.91 344.56 199.81 336.9 203.55 329.1 207.47 321.25 211.55 313.36 215.46 305.29 219.52 297.13 223.73 288.9 227.76 280.51 231.95 272.05 236.28 263.55 240.45 254.96 244.79 246.41 249.28 237.95 253.64 229.54 258.18 221.35 262.9 213.49 267.51 205.88 272.33 198.75 277.35 192.21 282.29 186.14 287.45 180.82 292.85 176.33 298.17 172.47 303.75 169.54 309.56 167.57 315.33 166.24 321.36 165.84 327.64 166.34 333.88 167.28 340.39 168.95 347.15 171.25 353.89 173.61 360.89 176.31 368.15 179.22 375.41 181.74 382.93 184.17 390.73 186.39" stroke-dasharray="3 4" transform="rotate(20.200000000000003, 400, 400)" opacity="0.81"></path><path d="M395.9 197.94C403.42 199.39 411.04 200.47 418.75 201.17 426.47 201.1 434.28 200.72 442.18 200.08 450.1 198.87 458.11 197.59 466.19 196.36 474.31 194.87 482.5 193.65 490.73 192.81 499 192.05 507.31 191.86 515.63 192.29 523.96 193.07 532.27 194.59 540.52 196.86 548.74 199.59 556.85 203.1 564.8 207.33 572.65 212.04 580.27 217.42 587.59 223.39 594.72 229.76 601.47 236.63 607.75 243.91 613.74 251.48 619.19 259.36 624 267.47 628.42 275.75 632.14 284.19 635.08 292.71 637.56 301.31 639.23 309.94 640.04 318.57 640.38 327.22 639.86 335.84 638.5 344.38 636.73 352.93 634.17 361.41 630.88 369.77 627.34 378.15 623.18 386.42 618.49 394.55 613.78 402.7 608.72 410.71 603.39 418.54 598.32 426.38 593.29 433.85 588.38 440.93 583.95 447.98 579.74 454.61 575.8 460.8 570.9 469.76 563.44 485.06 560.75 491.31 555.99 506.12 551.28 516.19 548.99 519.02 546.28 522.99 538.55 534.5 533.48 542.61 529.84 549.24 525.74 556.67 521.19 564.85 516.54 573.85 511.46 583.43 505.97 593.41 500.41 603.71 494.45 614.01 488.15 623.98 481.79 633.54 475.1 642.23 468.11 649.73 461.09 656.03 453.79 660.64 446.24 663.33 438.68 664.35 430.88 663.25 422.86 660.02 414.85 655.19 406.82 648.65 398.81 640.72 390.79 631.98 382.8 622.48 374.84 612.61 366.88 602.88 358.96 593.36 351.1 584.35 343.25 576.21 335.45 568.93 327.73 562.6 320.02 557.49 312.39 553.38 304.86 550.23 297.34 548.22 289.94 546.97 282.67 546.3 275.43 546.45 268.33 546.88 261.42 547.41 254.55 548.33 247.88 549.05 241.45 549.42 232.03 549.76 214.75 547.11 207.01 543.86 199.84 539.46 187.73 526.78 182.9 518.74 180.01 512.99 177.59 506.76 175.66 500.14 173.92 493.39 172.67 486.31 171.93 478.97 171.36 471.58 171.28 463.97 171.72 456.2 172.3 448.42 173.36 440.51 174.91 432.49 176.54 424.46 178.59 416.53 181.01 408.69 183.45 400.84 186.23 393.06 189.3 385.36 192.33 377.62 195.63 369.91 199.16 362.23 202.6 354.48 206.25 346.71 210.08 338.92 213.78 331.03 217.65 323.08 221.67 315.07 225.54 306.95 229.56 298.76 233.72 290.53 237.71 282.2 241.85 273.86 246.13 265.53 250.26 257.2 254.54 248.97 258.97 240.9 263.26 232.96 267.72 225.31 272.35 218.03 276.87 211.07 281.58 204.62 286.48 198.78 291.29 193.43 296.31 188.81 301.54 185.01 309.4 180.62 326.18 177.1 335.13 177.86 341.14 179 347.4 180.79 353.91 183.13 360.4 185.49 367.14 188.14 374.14 190.97 381.12 193.42 388.37 195.78 395.89 197.94" stroke-dasharray="10 10" transform="rotate(24.24, 400, 400)" opacity="0.77"></path><path d="M401.21 209.5C408.44 210.93 415.77 212.04 423.18 212.79 430.6 212.83 438.12 212.58 445.7 212.08 453.3 211.03 460.98 209.89 468.71 208.76 476.47 207.35 484.27 206.14 492.11 205.24 499.95 204.34 507.81 203.92 515.65 204.04 523.48 204.41 531.26 205.43 538.95 207.12 546.58 209.2 554.08 211.98 561.38 215.43 568.58 219.31 575.52 223.84 582.14 228.95 588.57 234.43 594.61 240.44 600.19 246.87 605.49 253.6 610.26 260.69 614.43 268.05 618.25 275.61 621.4 283.37 623.84 291.26 625.87 299.27 627.16 307.35 627.67 315.46 627.78 323.63 627.12 331.79 625.69 339.9 623.93 348.03 621.46 356.1 618.32 364.05 614.99 372.02 611.11 379.87 606.73 387.57 602.36 395.27 597.65 402.82 592.68 410.16 587.94 417.5 583.21 424.45 578.56 430.99 574.33 437.51 570.27 443.61 566.42 449.26 561.53 457.45 553.7 471.39 550.69 477.13 544.47 492.03 538.7 504.46 536.34 508.53 533.66 513.8 526.37 527.83 521.68 536.97 518.34 544.1 514.58 551.87 510.41 560.24 506.16 569.22 501.52 578.61 496.48 588.21 491.38 597.99 485.91 607.61 480.1 616.81 474.24 625.54 468.05 633.39 461.56 640.08 455.04 645.65 448.24 649.66 441.18 651.92 434.1 652.68 426.78 651.53 419.23 648.47 411.68 643.98 404.09 637.93 396.5 630.61 388.9 622.52 381.31 613.69 373.73 604.44 366.16 595.23 358.62 586.12 351.12 577.34 343.63 569.26 336.18 561.84 328.81 555.21 321.45 549.62 314.17 544.88 306.98 540.99 299.82 538.13 292.77 535.98 285.85 534.43 278.96 533.69 272.23 533.29 265.67 533.1 259.17 533.37 252.86 533.59 246.78 533.63 237.92 533.73 221.7 531.6 214.46 529.05 207.78 525.61 196.57 515.31 192.12 508.57 189.47 503.73 187.27 498.39 185.54 492.62 183.97 486.73 182.88 480.47 182.27 473.87 181.81 467.22 181.83 460.29 182.34 453.11 182.97 445.92 184.06 438.51 185.62 430.91 187.26 423.31 189.29 415.7 191.68 408.11 194.09 400.51 196.82 392.91 199.83 385.32 202.81 377.7 206.05 370.06 209.51 362.4 212.89 354.69 216.48 346.94 220.24 339.15 223.89 331.29 227.7 323.37 231.66 315.4 235.49 307.38 239.46 299.31 243.56 291.24 247.51 283.14 251.6 275.07 255.83 267.08 259.91 259.15 264.14 251.37 268.5 243.82 272.74 236.47 277.13 229.44 281.68 222.84 286.12 216.58 290.73 210.86 295.51 205.76 302.66 199.17 317.82 190.59 325.87 188.74 331.25 188.26 336.86 188.54 342.7 189.56 348.49 190.86 354.52 192.74 360.79 195.09 367.04 197.42 373.52 200.02 380.26 202.75 386.98 205.11 393.96 207.39 401.2 209.49" stroke-dasharray="1 9" transform="rotate(28.28, 400, 400)" opacity="0.73"></path><path d="M406.47 221.05C413.41 222.47 420.44 223.59 427.53 224.39 434.64 224.54 441.82 224.42 449.05 224.06 456.3 223.18 463.61 222.2 470.95 221.19 478.31 219.89 485.7 218.73 493.08 217.81 500.47 216.84 507.84 216.27 515.16 216.14 522.45 216.18 529.67 216.79 536.76 217.97 543.8 219.47 550.67 221.6 557.32 224.34 563.85 227.44 570.11 231.15 576.04 235.42 581.79 240.04 587.15 245.16 592.06 250.73 596.71 256.58 600.86 262.82 604.43 269.36 607.69 276.1 610.34 283.09 612.33 290.25 613.97 297.56 614.93 304.98 615.19 312.45 615.1 320.02 614.33 327.6 612.87 335.15 611.14 342.76 608.77 350.31 605.81 357.75 602.69 365.23 599.07 372.6 595.01 379.8 590.96 387.02 586.59 394.08 581.97 400.92 577.55 407.77 573.12 414.23 568.73 420.3 564.71 426.35 560.81 431.99 557.07 437.22 552.22 444.81 544.14 457.87 540.86 463.38 536.19 472.95 530.45 485.49 528.47 489.63 526.49 494.46 521.32 506.17 517.99 513.48 515.66 519.17 512.96 525.41 509.9 532.19 506.8 539.63 503.32 547.57 499.47 555.95 495.56 564.76 491.29 573.82 486.65 582.94 481.97 592.1 476.94 601 471.57 609.42 466.17 617.32 460.45 624.35 454.43 630.26 448.39 635.15 442.07 638.6 435.48 640.46 428.88 640.99 422.03 639.82 414.95 636.92 407.87 632.76 400.73 627.19 393.57 620.44 386.42 613 379.24 604.82 372.07 596.2 364.91 587.54 357.77 578.87 350.65 570.41 343.56 562.47 336.5 555.05 329.5 548.24 322.53 542.29 315.63 537.06 308.82 532.55 302.04 528.96 295.37 526.02 288.83 523.65 282.33 522.04 275.98 520.82 269.8 519.87 260.73 519.24 243.78 518.19 236 517.21 228.67 515.92 215.78 510.85 210.31 506.93 205.46 502.28 198 490.17 195.47 482.84 194.08 477.71 193.14 472.17 192.65 466.26 192.31 460.31 192.41 454.01 192.98 447.41 193.65 440.8 194.77 433.91 196.33 426.76 197.96 419.6 199.97 412.37 202.32 405.08 204.68 397.8 207.36 390.45 210.3 383.05 213.22 375.64 216.39 368.17 219.77 360.65 223.08 353.1 226.59 345.49 230.28 337.83 233.86 330.15 237.61 322.41 241.5 314.64 245.26 306.87 249.17 299.08 253.21 291.32 257.12 283.6 261.16 275.96 265.32 268.44 269.35 261.04 273.52 253.85 277.82 246.93 282 240.25 286.32 233.93 290.79 228.06 295.15 222.55 299.68 217.57 304.36 213.22 311.35 207.69 326.1 200.93 333.91 199.77 341.84 199.93 358.69 203.81 367.63 207.12 373.64 209.41 379.88 211.92 386.35 214.55 392.81 216.82 399.52 219.01 406.46 221.05" stroke-dasharray="2 4" transform="rotate(32.32, 400, 400)" opacity="0.70"></path><path d="M411.51 232.6C418.15 234 424.85 235.13 431.61 235.98 438.37 236.23 445.2 236.23 452.06 236.03 458.93 235.31 465.83 234.5 472.75 233.64 479.67 232.47 486.6 231.41 493.5 230.52 500.4 229.53 507.25 228.86 514.02 228.57 520.76 228.36 527.4 228.63 533.89 229.4 540.31 230.41 546.54 231.96 552.54 234.07 558.42 236.47 564.02 239.43 569.29 242.91 574.39 246.7 579.1 250.97 583.38 255.68 587.42 260.65 590.99 266.01 594.02 271.7 596.78 277.59 598.97 283.75 600.57 290.12 601.86 296.64 602.54 303.3 602.59 310.07 602.36 316.93 601.51 323.85 600.05 330.77 598.36 337.75 596.11 344.7 593.33 351.58 590.43 358.5 587.07 365.32 583.31 372 579.57 378.7 575.54 385.25 571.25 391.61 567.15 397.97 563.01 403.98 558.89 409.63 555.08 415.27 551.35 420.55 547.75 425.46 542.97 432.63 534.74 445.21 531.25 450.71 525.93 460.84 519.16 475.31 516.91 480.43 514.7 486.28 509.33 500.05 506.03 508.28 503.75 514.45 501.17 521.08 498.27 528.15 495.35 535.71 492.09 543.64 488.51 551.87 484.89 560.37 480.93 568.98 476.65 577.54 472.33 586.03 467.68 594.18 462.73 601.79 457.74 608.88 452.46 615.11 446.89 620.29 441.29 624.53 435.43 627.47 429.3 628.97 423.17 629.3 416.78 628.1 410.17 625.36 403.56 621.52 396.88 616.41 390.16 610.23 383.46 603.4 376.72 595.87 369.98 587.88 363.25 579.8 356.52 571.61 349.83 563.53 343.15 555.83 336.5 548.49 329.92 541.62 323.35 535.45 316.86 529.86 310.46 524.88 304.09 520.68 297.83 517.06 291.69 513.96 285.61 511.56 279.67 509.56 273.89 507.86 265.43 506.15 249.67 503.49 242.46 502.04 235.69 500.53 223.84 495.74 218.85 492.27 214.42 488.25 207.7 477.75 205.46 471.31 203.85 464.35 202.94 448.4 203.64 439.5 204.36 433.44 205.49 427.06 207.04 420.38 208.66 413.7 210.63 406.88 212.93 399.96 215.24 393.04 217.84 386.01 220.71 378.9 223.56 371.8 226.64 364.6 229.93 357.34 233.16 350.07 236.59 342.74 240.19 335.36 243.69 327.99 247.36 320.58 251.17 313.16 254.87 305.78 258.71 298.42 262.67 291.13 266.52 283.93 270.49 276.83 274.59 269.92 278.57 263.16 282.67 256.64 286.9 250.44 291.02 244.49 295.27 238.93 299.65 233.83 306.16 226.96 319.79 216.73 326.94 213.54 334.16 211.65 349.41 211.7 357.47 213.45 362.87 214.97 368.48 216.91 374.28 219.22 380.06 221.44 386.06 223.85 392.26 226.37 398.45 228.54 404.87 230.63 411.5 232.6" stroke-dasharray="10 3" transform="rotate(36.36, 400, 400)" opacity="0.66"></path><path d="M416.17 244.15C422.48 245.52 428.85 246.66 435.25 247.55 441.65 247.9 448.09 248.02 454.55 247.96 467.48 246.44 480.46 244.75 493.26 243.32 506 241.33 518.43 240.58 530.26 241.36 541.79 242.76 552.46 246.16 561.89 251.46 570.67 257.76 577.9 265.84 583.23 275.33 587.62 285.58 589.9 296.88 589.92 308.79 589 321.1 585.96 333.69 580.89 346.2 578.21 352.5 575.11 358.75 571.65 364.89 568.21 371.05 564.49 377.1 560.54 383 556.75 388.89 552.89 394.49 549.04 399.79 545.45 405.07 541.9 410.06 538.44 414.74 532.48 424.12 526.94 432.39 521.85 439.71 518.01 447.33 514.34 454.43 510.67 461.36 507.8 469.27 504.51 477.74 500.62 487.15 497.02 498.25 492.49 510.78 486.91 524.68 481.33 540.01 474.57 556.06 466.63 571.95 458.6 587.22 449.39 600.4 439.1 610.15 431.21 615.03 414.16 616.98 405.05 613.81 398.9 610.28 392.68 605.6 386.42 599.97 380.17 593.73 373.88 586.84 367.58 579.48 355.03 564.48 342.48 549.38 330.15 535.31 317.93 523.39 305.98 513.4 294.51 505.37 283.26 499.8 272.59 495.51 262.72 491.91 253.2 489.62 244.6 486.99 237.16 483.5 230.19 480.26 224.47 475.61 220.2 469.39 216.46 463.02 214.2 455.02 213.56 445.47 213.55 438.06 215.65 421.45 217.75 412.3 219.35 406.1 221.28 399.73 223.51 393.22 225.76 386.73 228.29 380.1 231.06 373.37 236.55 359.95 242.91 346.14 249.96 332.19 256.72 318.36 264.08 304.52 271.91 291.03 279.36 277.98 287.31 265.66 295.68 254.54 303.69 244.44 312.21 236.06 321.22 229.84 329.95 225.07 339.28 222.67 349.21 222.74 358.97 223.85 369.44 226.86 380.59 231.38 386.14 233.52 391.88 235.82 397.81 238.21 403.73 240.26 409.85 242.26 416.16 244.15" stroke-dasharray="2 7" transform="rotate(40.400000000000006, 400, 400)" opacity="0.62"></path><path d="M420.29 255.7C432.24 257.88 444.32 259.25 456.38 259.85 468.45 258.71 480.48 257.36 492.24 256.17 503.92 254.31 515.21 253.42 525.83 253.79 536.17 254.52 545.6 256.96 553.83 261.08 561.48 265.97 567.66 272.51 572.09 280.43 575.72 289 577.46 298.67 577.17 309.04 576.13 319.79 573.21 330.96 568.5 342.22 563.51 353.6 557.2 364.88 549.83 375.79 543 386.71 536 396.69 529.14 405.73 523.36 414.83 517.84 423.14 512.66 430.81 508.55 438.85 504.56 446.66 500.58 454.56 497.33 463.37 493.74 472.82 489.65 483.17 485.9 494.89 481.36 507.77 475.94 521.62 470.58 536.42 464.19 551.53 456.77 566.1 449.29 579.84 440.76 591.47 431.24 599.86 421.67 605.24 411.14 606.18 399.76 602.26 388.37 595.02 376.73 584.17 365.04 570.98 353.4 557.11 341.76 542.87 330.32 529.23 319 517.23 307.95 506.71 297.38 497.81 287.01 491.02 277.21 485.45 268.18 480.66 259.48 477.19 251.66 473.67 244.93 469.66 238.63 466.08 233.51 461.44 229.73 455.55 226.43 449.65 224.51 442.34 224.09 433.62 224.09 424.82 225.53 414.66 228.47 403.21 231.64 391.75 236 379.62 241.35 367.07 246.66 354.59 252.8 341.75 259.6 328.84 266.16 316.13 273.32 303.52 280.93 291.37 288.22 279.75 295.98 268.95 304.15 259.41 312 250.86 320.32 243.97 329.09 239.11 337.61 235.49 346.68 233.99 356.27 234.66 365.7 236.12 375.76 239.22 386.43 243.6 397.04 247.49 408.33 251.68 420.28 255.7" stroke-dasharray="7 0" transform="rotate(44.44, 400, 400)" opacity="0.58"></path><path d="M423.73 267.26C434.96 269.4 446.25 270.88 457.44 271.7 468.62 270.93 479.66 269.94 490.37 269.03 500.99 267.39 511.14 266.5 520.59 266.62 529.77 266.88 538.05 268.56 545.16 271.71 551.76 275.41 557 280.6 560.64 287.09 563.61 294.11 564.89 302.23 564.38 311.14 563.27 320.36 560.5 330.13 556.15 340.16 551.6 350.3 545.85 360.52 539.12 370.61 532.85 380.7 526.34 390.15 519.86 398.97 514.28 407.85 508.85 416.27 503.65 424.33 499.36 432.76 495.14 441.22 490.91 449.92 487.35 459.41 483.49 469.56 479.24 480.5 475.33 492.48 470.76 505.34 465.47 518.81 460.26 532.82 454.18 546.79 447.22 559.96 440.23 572.17 432.32 582.28 423.51 589.4 414.67 593.88 404.97 594.42 394.48 590.71 383.99 584.14 373.26 574.35 362.49 562.38 351.77 549.67 341.06 536.37 330.55 523.34 320.15 511.49 310.03 500.72 300.36 491.24 290.89 483.5 281.97 476.84 273.79 470.98 265.91 466.37 258.87 461.92 252.85 457.25 247.21 453.12 242.66 448.26 239.37 442.46 236.49 436.75 234.89 429.88 234.67 421.8 234.82 413.69 236.31 404.36 239.18 393.84 242.26 383.32 246.46 372.18 251.58 360.67 256.68 349.24 262.58 337.54 269.11 325.86 275.44 314.41 282.35 303.19 289.71 292.53 296.8 282.41 304.34 273.18 312.27 265.21 319.92 258.15 328.02 252.67 336.51 249.04 344.8 246.44 353.56 245.71 362.79 246.86 371.88 248.58 381.52 251.68 391.68 255.87 401.79 259.53 412.48 263.45 423.73 267.26" stroke-dasharray="5 4" transform="rotate(48.48, 400, 400)" opacity="0.54"></path><path d="M426.37 278.81C436.87 280.92 447.32 282.48 457.61 283.5 467.88 283.09 477.94 282.47 487.59 281.88 497.15 280.53 506.2 279.75 514.53 279.77 522.61 279.74 529.8 280.89 535.89 283.28 541.55 286.02 545.94 290.08 548.89 295.34 551.31 300.99 552.22 307.71 551.55 315.26 550.42 323.07 547.83 331.51 543.85 340.38 539.73 349.32 534.53 358.54 528.41 367.86 522.68 377.19 516.66 386.17 510.59 394.78 505.25 403.48 499.97 411.99 494.82 420.39 490.43 429.12 486.06 438.05 481.66 447.31 477.85 457.22 473.79 467.74 469.41 478.89 465.35 490.79 460.76 503.28 455.57 516.07 450.49 529.07 444.68 541.76 438.12 553.47 431.57 564.16 424.21 572.85 416.07 578.79 407.92 582.44 399 582.65 389.38 579.16 379.76 573.23 369.94 564.46 360.09 553.67 350.3 542.13 340.52 529.85 330.95 517.57 321.49 506.1 312.3 495.34 303.55 485.56 294.99 477.15 286.95 469.66 279.62 462.92 272.55 457.29 266.27 451.94 260.93 446.6 255.94 441.82 251.96 436.59 249.12 430.71 246.65 424.99 245.35 418.37 245.31 410.79 245.59 403.21 247.1 394.6 249.89 384.99 252.87 375.37 256.88 365.26 261.76 354.87 266.62 344.56 272.25 334.11 278.47 323.77 284.55 313.68 291.18 303.92 298.24 294.8 305.09 286.2 312.37 278.51 320.01 272.07 327.43 266.39 335.26 262.19 343.44 259.65 351.45 257.91 359.88 257.81 368.71 259.32 377.42 261.19 386.61 264.23 396.23 268.18 405.8 271.59 415.87 275.23 426.37 278.81" stroke-dasharray="3 9" transform="rotate(52.52, 400, 400)" opacity="0.51"></path><path d="M428.12 290.36C437.86 292.41 447.47 294.04 456.84 295.23 466.19 295.16 475.26 294.91 483.88 294.66 492.42 293.65 500.41 293.07 507.67 293.11 517.82 293.38 532.72 299.24 536.91 305.07 538.86 309.58 539.47 315.09 538.71 321.45 537.6 328 535.21 335.25 531.6 343.05 527.9 350.9 523.22 359.19 517.69 367.79 512.49 376.4 506.96 384.92 501.32 393.33 496.27 401.81 491.18 410.33 486.14 418.92 481.74 427.79 477.3 436.96 472.82 446.49 468.84 456.51 464.64 467.06 460.18 478.07 456.02 489.55 451.42 501.37 446.33 513.23 441.37 525.05 435.8 536.37 429.61 546.6 423.45 555.82 416.6 563.16 409.1 568.03 401.59 570.94 393.41 570.87 384.64 567.6 375.86 562.3 366.93 554.48 358 544.85 349.12 534.47 340.28 523.27 331.65 511.86 323.12 500.95 314.86 490.46 307.03 480.65 299.36 471.88 292.2 463.84 285.69 456.46 279.43 450.01 273.89 443.9 269.22 437.94 264.84 432.51 261.4 426.86 258.99 420.81 256.9 414.96 255.88 408.48 256 401.28 256.4 394.11 257.91 386.14 260.6 377.38 263.46 368.63 267.27 359.53 271.87 350.3 276.48 341.15 281.81 331.98 287.7 323.04 293.48 314.33 299.79 306.05 306.52 298.45 313.08 291.31 320.05 285.09 327.36 280.04 334.49 275.62 342 272.53 349.82 270.91 357.5 269.89 365.56 270.27 373.95 272 382.25 273.94 390.94 276.85 399.98 280.53 408.99 283.67 418.39 287.03 428.12 290.36" stroke-dasharray="4 3" transform="rotate(56.56, 400, 400)" opacity="0.47"></path><path d="M428.94 301.91C437.87 303.89 446.62 305.57 455.08 306.9 463.51 307.14 471.61 307.24 479.24 307.33 486.78 306.69 493.76 306.38 500.05 306.56 515.06 309.1 526.48 322 525.87 329.62 524.81 335.09 522.64 341.31 519.4 348.16 516.11 355.03 511.94 362.47 506.98 370.4 502.29 378.32 497.26 386.38 492.05 394.51 487.32 402.71 482.48 411.1 477.62 419.69 473.28 428.49 468.86 437.65 464.37 447.13 460.3 456.96 456.04 467.2 451.55 477.72 447.34 488.49 442.76 499.4 437.8 510.13 432.96 520.65 427.63 530.54 421.79 539.32 415.99 547.13 409.63 553.22 402.73 557.12 395.83 559.38 388.37 559.08 380.41 556.05 372.45 551.33 364.39 544.44 356.37 535.92 348.38 526.69 340.46 516.59 332.76 506.15 325.15 495.97 317.8 485.96 310.87 476.38 304.09 467.55 297.78 459.25 292.08 451.49 286.58 444.48 281.75 437.81 277.72 431.36 273.94 425.39 271 419.35 269 413.14 267.27 407.13 266.49 400.71 266.75 393.84 267.24 387 268.75 379.6 271.31 371.66 274.03 363.72 277.62 355.62 281.93 347.54 286.26 339.53 291.26 331.63 296.79 324.06 302.24 316.69 308.2 309.82 314.54 303.66 320.77 297.87 327.38 292.98 334.31 289.16 341.1 285.83 348.24 283.68 355.65 282.8 362.95 282.33 370.58 283.05 378.48 284.9 386.32 286.81 394.47 289.54 402.89 292.92 411.3 295.77 420 298.83 428.94 301.91" stroke-dasharray="9 10" transform="rotate(60.599999999999994, 400, 400)" opacity="0.43"></path><path d="M428.78 313.46C436.9 315.36 444.78 317.05 452.33 318.5 459.86 319.01 467.02 319.43 473.69 319.85 483.31 319.6 499.18 320.35 505.03 322.02 511.7 328.7 511.1 346.8 507.25 355.49 504.35 361.53 500.67 368.21 496.26 375.48 492.08 382.75 487.53 390.3 482.77 398.05 478.39 405.86 473.85 413.97 469.23 422.32 465.02 430.83 460.7 439.69 456.29 448.82 452.22 458.15 447.97 467.77 443.54 477.52 439.33 487.35 434.83 497.15 430.02 506.61 425.33 515.77 420.24 524.22 414.76 531.59 409.32 538.08 403.42 543.03 397.1 546.07 390.78 547.76 384.01 547.29 376.84 544.5 369.67 540.34 362.45 534.31 355.31 526.86 348.19 518.75 341.17 509.78 334.38 500.38 327.66 491.07 321.21 481.72 315.15 472.61 309.21 463.99 303.72 455.73 298.79 447.88 294.03 440.59 289.89 433.59 286.46 426.86 283.24 420.52 280.77 414.22 279.15 407.9 277.74 401.77 277.18 395.44 277.56 388.87 278.12 382.34 279.6 375.47 282.03 368.3 284.58 361.12 287.93 353.97 291.93 346.99 295.96 340.05 300.6 333.36 305.74 327.08 310.83 320.96 316.39 315.38 322.31 310.52 328.15 305.93 334.36 302.18 340.85 299.41 347.25 296.98 353.95 295.58 360.89 295.25 367.76 295.19 374.91 296.11 382.27 297.96 389.59 299.78 397.16 302.28 404.93 305.32 412.68 307.87 420.66 310.63 428.78 313.46" stroke-dasharray="2 1" transform="rotate(64.64, 400, 400)" opacity="0.39"></path><path d="M427.66 325.02C434.95 326.81 441.97 328.48 448.62 330.01 458.39 331.11 475.59 332.47 482.73 333.26 497.18 340.51 498.53 357.02 495.16 364.66 492.64 369.98 489.43 375.96 485.55 382.59 481.85 389.22 477.79 396.2 473.49 403.46 469.48 410.77 465.28 418.41 460.96 426.3 456.95 434.29 452.8 442.58 448.55 451.07 444.57 459.66 440.42 468.41 436.1 477.16 431.98 485.87 427.61 494.42 423.01 502.54 418.5 510.31 413.69 517.37 408.57 523.4 403.49 528.67 398.06 532.59 392.31 534.88 386.55 536.09 380.45 535.48 374.04 532.95 367.64 529.32 361.24 524.12 354.94 517.67 348.66 510.66 342.52 502.82 336.6 494.5 330.74 486.15 325.15 477.63 319.93 469.18 314.8 461.03 310.09 453.07 305.9 445.41 301.83 438.13 298.32 431.09 295.46 424.3 292.75 417.81 290.72 411.43 289.44 405.13 288.32 399 287.97 392.81 288.43 386.56 289.04 380.36 290.46 374.02 292.74 367.57 295.12 361.12 298.2 354.86 301.88 348.89 305.58 342.95 309.85 337.36 314.56 332.24 319.25 327.23 324.38 322.79 329.84 319.02 335.25 315.46 340.99 312.66 346.99 310.72 352.94 309 359.15 308.15 365.57 308.21 371.95 308.4 378.55 309.4 385.32 311.16 392.07 312.83 399.01 315.06 406.09 317.75 413.15 319.99 420.37 322.45 427.66 325.02" stroke-dasharray="4 1" transform="rotate(68.68, 400, 400)" opacity="0.35"></path><path d="M425.62 336.57C438.52 339.24 450.2 341.81 460.11 344.28 473.65 345.48 487.94 353.64 487.54 362.88 485.95 369.74 481.67 379.18 474.84 391.15 468.55 403.11 460.95 416.64 452.79 431.03 445.55 445.6 437.62 461.08 429.24 476.32 421.46 491.12 412.77 504.56 403.27 514.73 393.93 522.4 383.45 525.03 372.12 521.4 360.78 514.38 349.7 502.67 339.49 488.44 329.45 473.79 320.53 458.49 313.4 443.83 306.68 430.14 301.99 417.02 299.88 404.69 298.29 392.84 299.36 381.05 303.45 369.54 307.88 358.03 314.73 347.83 323.26 339.49 331.75 331.45 341.79 325.75 352.75 322.95 363.57 320.65 375.37 321.19 387.65 324.46 399.87 327.17 412.71 331.4 425.62 336.57" stroke-dasharray="6 3" transform="rotate(72.72, 400, 400)" opacity="0.32"></path><path d="M422.71 348.12C433.92 350.66 443.91 353.36 452.25 356.11 463.61 358.24 475.32 366.92 474.88 375.33 473.56 381.44 469.95 389.8 464.13 400.44 458.71 411.08 452.02 423.12 444.7 435.85 438.05 448.62 430.69 461.94 422.91 474.73 415.58 486.96 407.51 497.74 398.87 505.59 390.35 511.44 381.02 513.17 371.13 509.84 361.24 503.97 351.74 494.19 343.12 482.17 334.62 469.6 327.18 456.11 321.34 442.87 315.79 430.16 312.02 417.82 310.48 406.28 309.31 395.06 310.44 384.2 314.16 374.04 318.16 363.89 324.26 355.32 331.83 348.67 339.42 342.16 348.38 337.83 358.15 335.97 367.85 334.3 378.4 334.96 389.3 337.82 400.18 340.06 411.49 343.62 422.71 348.12" stroke-dasharray="1 3" transform="rotate(76.76, 400, 400)" opacity="0.28"></path><path d="M419.04 359.67C428.57 362.03 436.94 364.73 443.83 367.64 453.2 370.5 462.7 379.75 462.3 387.52 461.24 393.05 458.28 400.43 453.42 409.7 448.84 418.96 443.09 429.33 436.68 440.13 430.74 450.89 424.09 461.88 417.06 472.15 410.36 481.87 403.05 490.17 395.35 495.96 387.75 500.26 379.58 501.26 371.11 498.29 362.63 493.48 354.64 485.51 347.51 475.63 340.45 465.18 334.39 453.72 329.72 442.23 325.25 430.95 322.3 419.84 321.23 409.45 320.43 399.24 321.56 389.52 324.87 380.71 328.4 371.9 333.72 364.76 340.29 359.44 346.9 354.18 354.71 350.83 363.21 349.55 371.69 348.25 380.88 348.84 390.33 351.18 399.77 352.94 409.51 355.84 419.04 359.67" stroke-dasharray="11 8" transform="rotate(80.80000000000001, 400, 400)" opacity="0.24"></path><path d="M414.74 371.22C422.6 373.34 429.42 375.93 434.97 378.83 442.53 382.18 450.12 391.76 449.8 398.9 449.01 403.9 446.65 410.32 442.7 418.15 438.96 425.98 434.15 434.55 428.72 443.28 423.58 451.94 417.8 460.55 411.66 468.38 405.74 475.74 399.34 481.83 392.68 485.87 386.09 488.85 379.13 489.3 372.05 486.74 364.97 482.91 358.42 476.63 352.68 468.79 346.98 460.45 342.18 451.12 338.55 441.59 335.05 432.09 332.83 422.59 332.15 413.65 331.64 404.8 332.72 396.43 335.59 388.98 338.6 381.53 343.1 375.65 348.64 371.39 354.23 367.11 360.81 364.46 367.98 363.47 375.15 362.36 382.9 362.74 390.82 364.51 398.76 365.79 406.87 368.06 414.74 371.22" stroke-dasharray="5 6" transform="rotate(84.84, 400, 400)" opacity="0.20"></path><path d="M409.94 382.77C422.38 385.68 431.25 390.92 435.31 397.77 439.15 403.29 438.22 412.41 431.99 425.09 426.25 437.77 416.99 451.8 406.65 463.29 396.82 473.43 385.32 478.58 373.93 475.19 362.54 468.63 353.3 455.47 347.83 440.66 342.65 425.62 341.66 410.28 346.3 398.16 351.33 386.05 360.98 379.12 372.49 377.46 384.09 375.24 397.49 377.15 409.94 382.77" stroke-dasharray="6 10" transform="rotate(88.88, 400, 400)" opacity="0.16"></path><path d="M404.8 394.33C414.02 396.84 420.52 401.54 423.49 407.52 426.38 412.73 425.81 420.35 421.28 429.94 417.02 439.52 409.95 449.32 401.95 456.79 394.22 463.45 385.29 466.45 376.69 463.64 368.09 459.07 361.36 449.82 357.56 439.16 353.89 428.21 353.38 416.73 357.01 407.5 360.87 398.27 368.16 392.85 376.81 391.27 385.54 389.22 395.58 390.25 404.8 394.33" stroke-dasharray="7 4" transform="rotate(92.92, 400, 400)" opacity="0.13"></path><path d="M399.51 405.88C411.64 408.91 416.5 419.46 410.57 432.3 405.11 445.13 391.79 455.36 380.22 452.09 368.64 445.76 362.81 428.71 367.72 416.22 373.06 403.72 387.36 400.02 399.51 405.88" stroke-dasharray="9 4" transform="rotate(96.96, 400, 400)" opacity="0.09"></path></g></svg>