<svg xmlns="http://www.w3.org/2000/svg" version="1.1" xmlns:xlink="http://www.w3.org/1999/xlink" xmlns:svgjs="http://svgjs.dev/svgjs" viewBox="0 0 800 400"><path d="M191.03138732910156,149.77578735351562C196.4125518798828,147.68311055501303,197.01045735677084,142.30194091796875,207.1748809814453,143.4977569580078C217.33930460611978,144.69357299804688,211.65918477376303,153.06428019205728,221.524658203125,153.3632354736328C231.39013163248697,153.66219075520834,226.60687255859375,145.88939412434897,236.77130126953125,144.39462280273438C246.93572998046875,142.89985148111978,240.95665486653647,148.87892150878906,252.0179443359375,148.87892150878906C263.07923380533856,148.87892150878906,260.08970133463544,142.89985148111978,269.9551696777344,144.39462280273438C279.8206380208333,145.88939412434897,272.64574178059894,152.76532999674478,281.6143493652344,153.3632354736328C290.5829569498698,153.96114095052084,287.2944742838542,145.2914784749349,296.8609924316406,146.18833923339844C306.42751057942706,147.08519999186197,299.85052490234375,154.55904642740884,310.31390380859375,156.05381774902344C320.77728271484375,157.54858907063803,322.2720540364583,152.46637471516928,328.2511291503906,150.6726531982422" fill="none" stroke-width="3" stroke="url(&quot;#SvgjsLinearGradient1001&quot;)" stroke-linecap="butt" transform="matrix(1.701798350946721,0,0,1.701798350946721,-41.857065110131714,-54.91362298069134)"></path><defs><linearGradient id="SvgjsLinearGradient1001" gradientTransform="rotate(148, 0.5, 0.5)"><stop stop-color="hsl(70, 69%, 60%)" offset="0"></stop><stop stop-color="hsl(70, 69%, 80%)" offset="1"></stop></linearGradient></defs></svg>
