<svg xmlns="http://www.w3.org/2000/svg" version="1.1" xmlns:xlink="http://www.w3.org/1999/xlink" xmlns:svgjs="http://svgjs.dev/svgjs" width="2000" height="1500" viewBox="0 0 2000 1500"><rect width="2000" height="1500" fill="#06413d"></rect><g transform="matrix(0.75,0,0,0.75,249.090909090909,637.9152097926469)"><svg viewBox="0 0 396 59" data-background-color="#06413d" preserveAspectRatio="xMidYMid meet" height="297" width="2000" xmlns="http://www.w3.org/2000/svg" xmlns:xlink="http://www.w3.org/1999/xlink"><g id="tight-bounds" transform="matrix(1,0,0,1,0.2400000000000091,0.18800279341786563)"><svg viewBox="0 0 395.52 58.6239944131643" height="58.6239944131643" width="395.52"><g><svg viewBox="0 0 410.44919195401536 60.8368" height="58.6239944131643" width="395.52"><g><svg viewBox="0 0 410.44919195401536 60.8368" height="60.8368" width="410.44919195401536"><g id="textblocktransform"><svg viewBox="0 0 410.44919195401536 60.8368" height="60.8368" width="410.44919195401536" id="textblock"><g><svg viewBox="0 0 410.44919195401536 60.8368" height="60.8368" width="410.44919195401536"><g><svg><g></g><g></g></svg></g><g><svg><g></g><g><svg></svg></g></svg></g><g id="text-0"><svg viewBox="0 0 410.44919195401536 60.8368" height="60.8368" width="410.44919195401536"><g><svg xmlns:dc="http://purl.org/dc/elements/1.1/" xmlns:cc="http://creativecommons.org/ns#" xmlns:rdf="http://www.w3.org/1999/02/22-rdf-syntax-ns#" xmlns:svg="http://www.w3.org/2000/svg" xmlns="http://www.w3.org/2000/svg" xmlns:sodipodi="http://sodipodi.sourceforge.net/DTD/sodipodi-0.dtd" xmlns:inkscape="http://www.inkscape.org/namespaces/inkscape" version="1.1" x="0" y="0" viewBox="4.9515398049 5.175850937152987 91.493779684647 91.494393357947" enable-background="new 0 0 100 52" xml:space="preserve" height="60.8368" width="60.83639195401545" class="icon-cg-0" data-fill-palette-color="accent" id="cg-0"><g transform="matrix(0.6136733,-0.6136733,0.6136733,0.6136733,4.0598725,65.6509)" fill="#a70ff3" data-fill-palette-color="accent"><path d="M47.807 33.138c0.008-0.009 0.016-0.019 0.024-0.026-0.009 0.007-0.018 0.015-0.026 0.023 0 0.001 0.001 0.002 0.002 0.003z" fill="none"></path><path d="M53.048 49.8c-0.274-0.071-0.545-0.152-0.815-0.232-0.002 0.001-0.005 0.003-0.007 0.003 0.259 0.077 0.534 0.155 0.822 0.229z" fill="none"></path><path d="M36.33 35.501h-0.004c0.204 0.522 0.496 1.114 0.783 1.651h0.013c-0.284-0.54-0.548-1.09-0.792-1.651z" fill="none"></path><path d="M37.108 37.152c0.291 0.544 0.577 1.029 0.758 1.332-0.263-0.436-0.508-0.882-0.746-1.332h-0.012z" fill="#a70ff3" data-fill-palette-color="accent"></path><path d="M38.062 38.804h0.006c-0.048-0.079-0.1-0.152-0.147-0.231 0.087 0.144 0.141 0.231 0.141 0.231z" fill="#a70ff3" data-fill-palette-color="accent"></path><path d="M51.812 49.445c-0.631-0.197-1.249-0.424-1.856-0.669-0.003 0.002-0.007 0.003-0.009 0.004 0.06 0.025 0.781 0.324 1.865 0.665z" fill="#a70ff3" data-fill-palette-color="accent"></path><path d="M52.226 49.57c0.002 0 0.005-0.002 0.007-0.003-0.106-0.03-0.213-0.057-0.318-0.091 0.101 0.033 0.205 0.065 0.311 0.094z" fill="#a70ff3" data-fill-palette-color="accent"></path><path d="M74.458 0.955H59.321c-1.307 0-2.591 0.1-3.845 0.293-0.273 0.042-0.541 0.101-0.811 0.151 4.646 2.666 8.469 6.605 10.987 11.343h1.238 8.346c7.322 0 13.257 5.937 13.257 13.259 0 7.321-5.936 13.258-13.257 13.258H65.72 63.762 61.857 61.851 58.68c-3.305 0-6.324-1.212-8.646-3.212 0 0-0.003 0.003-0.003 0.003 0-0.002-0.001-0.002-0.002-0.003-0.494-0.414-0.886-0.802-1.206-1.148-0.7-0.764-1.011-1.303-1.011-1.303 0.001-0.002 0.002-0.002 0.002-0.003-0.001-0.001-0.002-0.002-0.002-0.003-1.505-2.15-2.389-4.766-2.389-7.589 0-2.746 0.834-5.296 2.263-7.413 0.041-0.06 0.086-0.117 0.127-0.176-1.736-1.473-3.978-2.367-6.429-2.367h-5.041c-1.325 3.052-2.067 6.416-2.067 9.956 0 3.538 0.737 6.903 2.061 9.955 0.244 0.561 0.509 1.111 0.792 1.651 0.237 0.45 0.482 0.896 0.746 1.332 0.02 0.033 0.036 0.059 0.054 0.088 0.047 0.079 0.099 0.152 0.147 0.231 2.792 4.463 6.948 7.98 11.888 9.973 0.608 0.245 1.226 0.472 1.856 0.669 0.034 0.011 0.068 0.022 0.103 0.031 0.105 0.034 0.212 0.061 0.318 0.091 0.27 0.08 0.541 0.161 0.815 0.232 0.004 0 0.006 0.002 0.01 0.003 2 0.513 4.096 0.787 6.254 0.787H74.457C88.289 51.044 99.501 39.831 99.501 26 99.502 12.169 88.29 0.955 74.458 0.955z" fill="#a70ff3" data-fill-palette-color="accent"></path><path d="M25.542 51.045h15.137c1.308 0 2.592-0.101 3.846-0.294 0.273-0.042 0.542-0.1 0.811-0.151C40.69 47.935 36.866 43.996 34.349 39.258H33.11 24.764c-7.322 0-13.257-5.936-13.257-13.259 0-7.322 5.935-13.257 13.257-13.257h9.516 1.957 1.905 0.007 3.17c3.304 0 6.323 1.212 8.645 3.212l0.002-0.003c0.001 0.001 0.001 0.002 0.002 0.003 0.495 0.413 0.887 0.801 1.206 1.148 0.701 0.762 1.011 1.302 1.011 1.302 0 0.001-0.001 0.002-0.002 0.003 0.001 0 0.002 0.001 0.003 0.003 1.505 2.15 2.39 4.766 2.39 7.588 0 2.746-0.835 5.297-2.264 7.412-0.041 0.062-0.085 0.118-0.127 0.176 1.736 1.474 3.979 2.369 6.429 2.369h5.042c1.324-3.053 2.065-6.417 2.065-9.957 0-3.539-0.737-6.903-2.061-9.955C63.416 15.482 63.151 14.932 62.868 14.392 62.631 13.941 62.386 13.494 62.122 13.06 62.102 13.027 62.086 13 62.069 12.971 62.021 12.893 61.97 12.818 61.922 12.741 59.13 8.278 54.973 4.76 50.034 2.768 49.426 2.523 48.808 2.297 48.178 2.098 48.144 2.087 48.11 2.077 48.075 2.066 47.97 2.034 47.863 2.007 47.757 1.977 47.487 1.896 47.216 1.815 46.941 1.745 46.937 1.744 46.935 1.744 46.932 1.743 44.932 1.228 42.837 0.955 40.677 0.955H25.542c-13.832 0-25.044 11.212-25.044 25.044 0 13.833 11.212 25.046 25.044 25.046z" fill="#a70ff3" data-fill-palette-color="accent"></path><path d="M53.058 49.803C53.055 49.802 53.052 49.8 53.048 49.8c0.004 0 0.007 0.002 0.01 0.003z" fill="#a70ff3" data-fill-palette-color="accent"></path><path d="M51.812 49.445c0.034 0.011 0.068 0.022 0.103 0.031-0.034-0.008-0.068-0.02-0.103-0.031z" fill="#a70ff3" data-fill-palette-color="accent"></path><path d="M47.805 33.141c0 0 0.311 0.539 1.011 1.303 0.005-0.006 0.01-0.012 0.016-0.015-0.369-0.407-0.709-0.84-1.025-1.291 0 0.001-0.001 0.001-0.002 0.003z" fill="#a70ff3" data-fill-palette-color="accent"></path><path d="M37.92 38.572c-0.018-0.029-0.034-0.055-0.054-0.088 0.019 0.03 0.036 0.058 0.054 0.088z" fill="#a70ff3" data-fill-palette-color="accent"></path><path d="M48.832 34.429c-0.006 0.003-0.011 0.009-0.016 0.015 0.319 0.347 0.711 0.734 1.206 1.148 0.001-0.002 0.002-0.003 0.002-0.003-0.42-0.362-0.82-0.749-1.192-1.16z" fill="#a70ff3" data-fill-palette-color="accent"></path><path d="M50.027 35.592c0.001-0.003 0.004-0.006 0.012-0.015-0.004 0.004-0.01 0.008-0.015 0.012 0.001 0 0.002 0.001 0.003 0.003z" fill="#a70ff3" data-fill-palette-color="accent"></path><rect height="0.0040000002" width="0.0040000002" y="35.59" x="50.021999" fill="#a70ff3" data-fill-palette-color="accent"></rect></g></svg></g><g transform="matrix(1,0,0,1,75.19959195401545,0)"><svg width="335.24959999999993" viewBox="2.4 -37 207.19 37.6" height="60.8368" data-palette-color="#ffd5df"><g class="wordmark-text-0" data-fill-palette-color="primary"><path d="M13.4 0.6L13.4 0.6Q9.65 0.6 6.88-0.65 4.1-1.9 2.4-4.25L2.4-4.25 5.3-6.55Q6.8-4.65 8.8-3.68 10.8-2.7 13.75-2.7L13.75-2.7Q17.2-2.7 19.15-4 21.1-5.3 21.1-7.65L21.1-7.65Q21.1-9.45 20.03-10.13 18.95-10.8 17.35-11.05L17.35-11.05 13.6-11.6Q12.2-11.8 10.83-12.18 9.45-12.55 8.38-13.3 7.3-14.05 6.63-15.23 5.95-16.4 5.95-18.2L5.95-18.2Q5.95-20.25 6.83-21.78 7.7-23.3 9.2-24.33 10.7-25.35 12.7-25.88 14.7-26.4 17-26.4L17-26.4Q20.4-26.4 22.8-25.35 25.2-24.3 26.65-22.45L26.65-22.45 23.9-20.05Q23.55-20.55 22.98-21.1 22.4-21.65 21.53-22.1 20.65-22.55 19.43-22.83 18.2-23.1 16.55-23.1L16.55-23.1Q13.2-23.1 11.48-21.85 9.75-20.6 9.75-18.5L9.75-18.5Q9.75-17.55 10.08-16.95 10.4-16.35 10.95-15.98 11.5-15.6 12.23-15.43 12.95-15.25 13.75-15.1L13.75-15.1 17.4-14.5Q18.65-14.3 19.98-13.98 21.3-13.65 22.4-12.98 23.5-12.3 24.23-11.13 24.95-9.95 24.95-8.05L24.95-8.05Q24.95-6.05 24.13-4.45 23.3-2.85 21.78-1.73 20.25-0.6 18.13 0 16 0.6 13.4 0.6ZM32.95 0L39.15-37 43.05-37 40.15-19.7 40.35-19.7Q41.8-22.8 43.8-24.6 45.8-26.4 48.95-26.4L48.95-26.4Q52.2-26.4 54.07-24.45 55.95-22.5 55.95-18.95L55.95-18.95Q55.95-18.2 55.87-17.32 55.8-16.45 55.65-15.6L55.65-15.6 53.05 0 49.15 0 51.7-15.25Q51.85-16.15 51.9-16.88 51.95-17.6 51.95-18L51.95-18Q51.95-20.3 50.9-21.63 49.85-22.95 47.65-22.95L47.65-22.95Q45.95-22.95 44.62-22.2 43.3-21.45 42.2-20.15L42.2-20.15Q42-19.9 41.57-19.38 41.15-18.85 40.7-18.07 40.25-17.3 39.85-16.32 39.45-15.35 39.25-14.25L39.25-14.25 36.85 0 32.95 0ZM73.25 0.6L73.25 0.6Q70.75 0.6 68.87-0.2 67-1 65.75-2.43 64.5-3.85 63.85-5.88 63.2-7.9 63.2-10.3L63.2-10.3Q63.2-14 64.25-16.98 65.3-19.95 67.12-22.05 68.95-24.15 71.4-25.28 73.84-26.4 76.7-26.4L76.7-26.4Q79.2-26.4 81.09-25.6 83-24.8 84.27-23.38 85.55-21.95 86.17-19.93 86.8-17.9 86.8-15.5L86.8-15.5Q86.8-11.8 85.75-8.83 84.7-5.85 82.87-3.75 81.05-1.65 78.57-0.53 76.09 0.6 73.25 0.6ZM73.45-2.8L73.45-2.8Q77.09-2.8 79.27-5.03 81.45-7.25 82.09-11.1L82.09-11.1 82.59-14.1Q82.75-15 82.8-15.6 82.84-16.2 82.84-16.65L82.84-16.65Q82.84-19.95 81.15-21.48 79.45-23 76.55-23L76.55-23Q72.9-23 70.72-20.78 68.55-18.55 67.9-14.7L67.9-14.7 67.4-11.7Q67.25-10.8 67.2-10.2 67.15-9.6 67.15-9.15L67.15-9.15Q67.15-5.85 68.84-4.33 70.55-2.8 73.45-2.8ZM102.79 0L98.89 0 102.64-22.45 95.39-22.45 95.94-25.8 107.09-25.8 105.94-18.9 106.19-18.9Q106.84-20.45 107.69-21.73 108.54-23 109.67-23.9 110.79-24.8 112.24-25.3 113.69-25.8 115.54-25.8L115.54-25.8 119.44-25.8 118.79-21.9 114.39-21.9Q112.14-21.9 110.64-21.28 109.14-20.65 107.99-19.3L107.99-19.3Q107.74-19 107.32-18.48 106.89-17.95 106.44-17.2 105.99-16.45 105.62-15.5 105.24-14.55 105.04-13.45L105.04-13.45 102.79 0ZM131.94 0.6L131.94 0.6Q130.19 0.6 129.22-0.35 128.24-1.3 128.24-3.1L128.24-3.1Q128.24-3.45 128.27-4.05 128.29-4.65 128.39-5.05L128.39-5.05 131.39-22.45 123.94-22.45 124.49-25.8 129.74-25.8Q131.04-25.8 131.67-26.33 132.29-26.85 132.54-28.15L132.54-28.15 133.69-34.9 137.39-34.9 135.84-25.8 146.49-25.8 145.94-22.45 135.29-22.45 132.09-3.35 133.09-2.75 144.34-10.25 146.29-7.75 140.64-3.75Q138.89-2.5 137.62-1.68 136.34-0.85 135.31-0.35 134.29 0.15 133.49 0.38 132.69 0.6 131.94 0.6ZM170.74 0L166.84 0 167.99-6.85 150.74-6.85 151.39-10.7 171.04-34.9 176.59-34.9 172.44-10.25 177.69-10.25 177.14-6.85 171.89-6.85 170.74 0ZM171.79-30.7L155.14-10.25 168.54-10.25 171.99-30.7 171.79-30.7ZM187.69-34.9L191.79-34.9 188.44-14.9Q188.19-13.55 188.06-12.58 187.94-11.6 187.84-10.9 187.74-10.2 187.71-9.65 187.69-9.1 187.69-8.65L187.69-8.65Q187.69-7.35 187.94-6.3 188.19-5.25 188.81-4.53 189.44-3.8 190.54-3.4 191.64-3 193.29-3L193.29-3Q195.74-3 197.24-3.7 198.74-4.4 199.64-5.78 200.54-7.15 201.01-9.15 201.49-11.15 201.94-13.7L201.94-13.7 205.49-34.9 209.59-34.9 206.19-14.55Q205.54-10.65 204.74-7.8 203.94-4.95 202.59-3.08 201.24-1.2 199.06-0.3 196.89 0.6 193.44 0.6L193.44 0.6Q188.09 0.6 185.86-1.7 183.64-4 183.64-8.3L183.64-8.3Q183.64-9.9 183.91-12 184.19-14.1 184.54-16.15L184.54-16.15 187.69-34.9Z" fill="#ffd5df" data-fill-palette-color="primary"></path></g></svg></g></svg></g></svg></g></svg></g></svg></g></svg></g><defs></defs></svg><rect width="395.52" height="58.6239944131643" fill="none" stroke="none" visibility="hidden"></rect></g></svg></g></svg>